<svg width="26" height="25" viewBox="0 0 26 25" fill="none" xmlns="http://www.w3.org/2000/svg">
<path d="M24.7481 5.45667L14.1556 0.265875C13.8016 0.0914591 13.4041 0 13 0C12.5959 0 12.1984 0.0914591 11.8444 0.265875L1.25185 5.45667C0.872826 5.64232 0.556596 5.91588 0.336335 6.24863C0.116074 6.58138 -9.99543e-05 6.96106 6.45281e-08 7.34785V17.6518C-9.99543e-05 18.0386 0.116074 18.4183 0.336335 18.7511C0.556596 19.0838 0.872826 19.3574 1.25185 19.543L11.8444 24.7338C12.1984 24.9084 12.5959 25 13 25C13.4041 25 13.8016 24.9084 14.1556 24.7338L24.7481 19.543C25.1272 19.3574 25.4434 19.0838 25.6637 18.7511C25.8839 18.4183 26.0001 18.0386 26 17.6518V7.34785C26.0001 6.96106 25.8839 6.58138 25.6637 6.24863C25.4434 5.91588 25.1272 5.64232 24.7481 5.45667ZM13 2.64737L21.6667 6.89634L19.0871 8.16036L10.4205 3.91247L13 2.64737ZM13 11.1421L4.33333 6.89634L7.41 5.3877L16.0767 9.63451L13 11.1421ZM2.88889 9.13666L11.5556 13.3824V21.6443L2.88889 17.3965V9.13666ZM14.4444 21.6443V13.3824L17.3333 11.9675V15.0861C17.3333 15.429 17.4855 15.7579 17.7564 16.0005C18.0273 16.243 18.3947 16.3792 18.7778 16.3792C19.1609 16.3792 19.5283 16.243 19.7992 16.0005C20.07 15.7579 20.2222 15.429 20.2222 15.0861V10.5515L23.1111 9.13666V17.3965L14.4444 21.6443Z" fill="#92F0DE"/>
</svg>
