<svg width="18" height="30" viewBox="0 0 18 30" fill="none" xmlns="http://www.w3.org/2000/svg">
<g clip-path="url(#clip0_86_115)">
<path d="M10.875 3C10.875 3.51562 10.6914 3.95703 10.3242 4.32422C9.95703 4.69141 9.51562 4.875 9 4.875C8.48438 4.875 8.04297 4.69141 7.67578 4.32422C7.30859 3.95703 7.125 3.51562 7.125 3C7.125 2.48438 7.30859 2.04297 7.67578 1.67578C8.04297 1.30859 8.48438 1.125 9 1.125C9.51562 1.125 9.95703 1.30859 10.3242 1.67578C10.6914 2.04297 10.875 2.48438 10.875 3ZM15.75 6.75V23.25C15.75 23.4531 15.6758 23.6289 15.5273 23.7773C15.3789 23.9258 15.2031 24 15 24H3C2.79688 24 2.62109 23.9258 2.47266 23.7773C2.32422 23.6289 2.25 23.4531 2.25 23.25V6.75C2.25 6.54688 2.32422 6.37109 2.47266 6.22266C2.62109 6.07422 2.79688 6 3 6H15C15.2031 6 15.3789 6.07422 15.5273 6.22266C15.6758 6.37109 15.75 6.54688 15.75 6.75ZM11.25 26.625C11.25 26.875 11.125 27 10.875 27H7.125C6.875 27 6.75 26.875 6.75 26.625C6.75 26.375 6.875 26.25 7.125 26.25H10.875C11.125 26.25 11.25 26.375 11.25 26.625ZM18 27V3C18 2.1875 17.7031 1.48438 17.1094 0.890625C16.5156 0.296875 15.8125 0 15 0H3C2.1875 0 1.48438 0.296875 0.890625 0.890625C0.296875 1.48438 0 2.1875 0 3V27C0 27.8125 0.296875 28.5156 0.890625 29.1094C1.48438 29.7031 2.1875 30 3 30H15C15.8125 30 16.5156 29.7031 17.1094 29.1094C17.7031 28.5156 18 27.8125 18 27Z" fill="black"/>
</g>
<defs>
<clipPath id="clip0_86_115">
<rect width="18" height="30" fill="white" transform="matrix(1 0 0 -1 0 30)"/>
</clipPath>
</defs>
</svg>
