<svg width="12" height="23" viewBox="0 0 12 23" fill="none" xmlns="http://www.w3.org/2000/svg">
<g clip-path="url(#clip0_76_31)">
<path d="M7.25 2.22728C7.25 2.61009 7.1276 2.9378 6.88281 3.21041C6.63802 3.48302 6.34375 3.61933 6 3.61933C5.65625 3.61933 5.36198 3.48302 5.11719 3.21041C4.8724 2.9378 4.75 2.61009 4.75 2.22728C4.75 1.84447 4.8724 1.51676 5.11719 1.24415C5.36198 0.97154 5.65625 0.835236 6 0.835236C6.34375 0.835236 6.63802 0.97154 6.88281 1.24415C7.1276 1.51676 7.25 1.84447 7.25 2.22728ZM10.5 5.01137V17.2614C10.5 17.4122 10.4505 17.5427 10.3516 17.6529C10.2526 17.7631 10.1354 17.8182 10 17.8182H2C1.86458 17.8182 1.7474 17.7631 1.64844 17.6529C1.54948 17.5427 1.5 17.4122 1.5 17.2614V5.01137C1.5 4.86057 1.54948 4.73006 1.64844 4.61986C1.7474 4.50965 1.86458 4.45455 2 4.45455H10C10.1354 4.45455 10.2526 4.50965 10.3516 4.61986C10.4505 4.73006 10.5 4.86057 10.5 5.01137ZM7.5 19.7671C7.5 19.9527 7.41667 20.0455 7.25 20.0455H4.75C4.58333 20.0455 4.5 19.9527 4.5 19.7671C4.5 19.5814 4.58333 19.4886 4.75 19.4886H7.25C7.41667 19.4886 7.5 19.5814 7.5 19.7671ZM12 20.0455V2.22728C12 1.62406 11.8021 1.10205 11.4062 0.66123C11.0104 0.220415 10.5417 7.62939e-06 10 7.62939e-06H2C1.45833 7.62939e-06 0.989583 0.220415 0.59375 0.66123C0.197917 1.10205 0 1.62406 0 2.22728V20.0455C0 20.6487 0.197917 21.1707 0.59375 21.6115C0.989583 22.0523 1.45833 22.2727 2 22.2727H10C10.5417 22.2727 11.0104 22.0523 11.4062 21.6115C11.8021 21.1707 12 20.6487 12 20.0455Z" fill="black"/>
</g>
<defs>
<clipPath id="clip0_76_31">
<rect width="12" height="22.2727" fill="white" transform="matrix(1 0 0 -1 0 22.2727)"/>
</clipPath>
</defs>
</svg>
