<svg width="40" height="37" viewBox="0 0 40 37" fill="none" xmlns="http://www.w3.org/2000/svg">
<path d="M22.1145 5.65607C22.6146 5.19364 23.2927 4.93386 23.9999 4.93386C24.707 4.93386 25.3851 5.19364 25.8852 5.65607L37.8852 16.7561C38.3851 17.2186 38.6659 17.8459 38.6659 18.5C38.6659 19.1541 38.3851 19.7814 37.8852 20.2439L25.8852 31.3439C25.3822 31.7933 24.7086 32.0419 24.0094 32.0363C23.3103 32.0306 22.6414 31.7712 22.147 31.3139C21.6526 30.8565 21.3721 30.2379 21.3661 29.5911C21.36 28.9444 21.6288 28.3213 22.1145 27.8561L29.3332 20.9667H3.99985C3.2926 20.9667 2.61433 20.7068 2.11423 20.2442C1.61413 19.7816 1.33318 19.1542 1.33318 18.5C1.33318 17.8458 1.61413 17.2184 2.11423 16.7558C2.61433 16.2932 3.2926 16.0333 3.99985 16.0333H29.3332L22.1145 9.14394C21.6146 8.68137 21.3338 8.05407 21.3338 7.4C21.3338 6.74593 21.6146 6.11864 22.1145 5.65607Z" fill="#4CA5CB"/>
</svg>
