<svg width="21" height="22" viewBox="0 0 21 22" fill="none" xmlns="http://www.w3.org/2000/svg">
<path d="M10.4912 1.79938C5.66117 1.79938 1.74994 5.83001 1.74994 10.7963C1.74994 15.7626 5.66117 19.7933 10.4912 19.7933C15.3299 19.7933 19.2499 15.7626 19.2499 10.7963C19.2499 5.83001 15.3299 1.79938 10.4912 1.79938ZM10.4999 17.9939C6.63242 17.9939 3.49993 14.773 3.49993 10.7963C3.49993 6.81968 6.63242 3.59877 10.4999 3.59877C14.3674 3.59877 17.4999 6.81968 17.4999 10.7963C17.4999 14.773 14.3674 17.9939 10.4999 17.9939ZM13.5624 9.89663C14.2886 9.89663 14.8749 9.29383 14.8749 8.54709C14.8749 7.80034 14.2886 7.19755 13.5624 7.19755C12.8361 7.19755 12.2499 7.80034 12.2499 8.54709C12.2499 9.29383 12.8361 9.89663 13.5624 9.89663ZM7.43742 9.89663C8.16366 9.89663 8.74991 9.29383 8.74991 8.54709C8.74991 7.80034 8.16366 7.19755 7.43742 7.19755C6.71117 7.19755 6.12492 7.80034 6.12492 8.54709C6.12492 9.29383 6.71117 9.89663 7.43742 9.89663ZM10.4999 15.7446C12.5386 15.7446 14.2711 14.4311 14.9711 12.5957H6.02867C6.72867 14.4311 8.46116 15.7446 10.4999 15.7446Z" fill="#4CA5CB"/>
</svg>
