<svg width="41" height="41" viewBox="0 0 41 41" fill="none" xmlns="http://www.w3.org/2000/svg">
<path d="M20.5 23.9167C19.0764 23.9167 17.8663 23.4184 16.8698 22.4219C15.8732 21.4253 15.375 20.2153 15.375 18.7917V8.54167C15.375 7.11806 15.8732 5.90799 16.8698 4.91146C17.8663 3.91493 19.0764 3.41667 20.5 3.41667C21.9236 3.41667 23.1336 3.91493 24.1302 4.91146C25.1267 5.90799 25.625 7.11806 25.625 8.54167V18.7917C25.625 20.2153 25.1267 21.4253 24.1302 22.4219C23.1336 23.4184 21.9236 23.9167 20.5 23.9167ZM18.7916 35.875V30.6219C15.8305 30.2233 13.3819 28.8993 11.4458 26.65C9.50969 24.4007 8.54164 21.7812 8.54164 18.7917H11.9583C11.9583 21.1549 12.7914 23.1696 14.4576 24.8357C16.1238 26.5019 18.1379 27.3345 20.5 27.3333C22.8632 27.3333 24.8779 26.5002 26.5441 24.834C28.2102 23.1678 29.0428 21.1537 29.0416 18.7917H32.4583C32.4583 21.7812 31.4902 24.4007 29.5541 26.65C27.618 28.8993 25.1694 30.2233 22.2083 30.6219V35.875H18.7916Z" fill="black"/>
</svg>
