<svg width="37" height="27" viewBox="0 0 37 27" fill="none" xmlns="http://www.w3.org/2000/svg">
<path d="M16.4039 26.1451C15.9083 26.6034 15.2362 26.8609 14.5354 26.8609C13.8346 26.8609 13.1625 26.6034 12.6669 26.1451L0.773852 15.144C0.278389 14.6856 5.03543e-05 14.0639 5.03543e-05 13.4157C5.03543e-05 12.7674 0.278389 12.1457 0.773852 11.6873L12.6669 0.68622C13.1653 0.240903 13.8329 -0.00550604 14.5259 6.39112e-05C15.2188 0.00563387 15.8817 0.262737 16.3717 0.716001C16.8617 1.16926 17.1397 1.78242 17.1457 2.42341C17.1517 3.06439 16.8854 3.68192 16.4039 4.14299L9.24961 10.971L34.3571 10.971C35.058 10.971 35.7303 11.2285 36.2259 11.687C36.7216 12.1455 37 12.7673 37 13.4157C37 14.064 36.7216 14.6858 36.2259 15.1443C35.7303 15.6028 35.058 15.8603 34.3571 15.8603L9.24961 15.8603L16.4039 22.6883C16.8994 23.1468 17.1777 23.7685 17.1777 24.4167C17.1777 25.0649 16.8994 25.6866 16.4039 26.1451Z" fill="#4CA5CB"/>
</svg>
