<svg width="49" height="49" viewBox="0 0 49 49" fill="none" xmlns="http://www.w3.org/2000/svg">
<path d="M10.7188 22.9688H41.3438C41.7499 22.9688 42.1393 23.1301 42.4265 23.4172C42.7137 23.7044 42.875 24.0939 42.875 24.5C42.875 24.9061 42.7137 25.2956 42.4265 25.5828C42.1393 25.8699 41.7499 26.0312 41.3438 26.0312H10.7188C10.3126 26.0312 9.92316 25.8699 9.63599 25.5828C9.34883 25.2956 9.1875 24.9061 9.1875 24.5C9.1875 24.0939 9.34883 23.7044 9.63599 23.4172C9.92316 23.1301 10.3126 22.9688 10.7188 22.9688Z" fill="white"/>
<path d="M11.3527 24.5L24.0529 37.1971C24.3405 37.4847 24.502 37.8746 24.502 38.2813C24.502 38.6879 24.3405 39.0779 24.0529 39.3654C23.7654 39.6529 23.3754 39.8144 22.9688 39.8144C22.5622 39.8144 22.1722 39.6529 21.8847 39.3654L8.10343 25.5841C7.96083 25.4419 7.84769 25.2729 7.77049 25.0869C7.6933 24.9009 7.65356 24.7014 7.65356 24.5C7.65356 24.2986 7.6933 24.0992 7.77049 23.9131C7.84769 23.7271 7.96083 23.5581 8.10343 23.4159L21.8847 9.63464C22.1722 9.34711 22.5622 9.18558 22.9688 9.18558C23.3754 9.18558 23.7654 9.34711 24.0529 9.63464C24.3405 9.92216 24.502 10.3121 24.502 10.7188C24.502 11.1254 24.3405 11.5154 24.0529 11.8029L11.3527 24.5Z" fill="white"/>
</svg>
