<svg width="21" height="21" viewBox="0 0 21 21" fill="none" xmlns="http://www.w3.org/2000/svg">
<g clip-path="url(#clip0_126_525)">
<path d="M10.4912 1.75001C5.66123 1.75001 1.74998 5.67001 1.74998 10.5C1.74998 15.33 5.66123 19.25 10.4912 19.25C15.33 19.25 19.25 15.33 19.25 10.5C19.25 5.67001 15.33 1.75001 10.4912 1.75001ZM10.5 17.5C6.63248 17.5 3.49998 14.3675 3.49998 10.5C3.49998 6.63251 6.63248 3.50001 10.5 3.50001C14.3675 3.50001 17.5 6.63251 17.5 10.5C17.5 14.3675 14.3675 17.5 10.5 17.5ZM13.5625 9.625C14.2887 9.625 14.875 9.03875 14.875 8.3125C14.875 7.58626 14.2887 7.00001 13.5625 7.00001C12.8362 7.00001 12.25 7.58626 12.25 8.3125C12.25 9.03875 12.8362 9.625 13.5625 9.625ZM7.43747 9.625C8.16372 9.625 8.74997 9.03875 8.74997 8.3125C8.74997 7.58626 8.16372 7.00001 7.43747 7.00001C6.71123 7.00001 6.12498 7.58626 6.12498 8.3125C6.12498 9.03875 6.71123 9.625 7.43747 9.625ZM10.5 15.3125C12.5387 15.3125 14.2712 14.035 14.9712 12.25H6.02873C6.72872 14.035 8.46122 15.3125 10.5 15.3125Z" fill="#EFB213"/>
</g>
<defs>
<clipPath id="clip0_126_525">
<rect width="20.7453" height="20.7453" fill="white" transform="scale(1.01227)"/>
</clipPath>
</defs>
</svg>
