<svg width="35" height="34" viewBox="0 0 35 34" fill="none" xmlns="http://www.w3.org/2000/svg">
<path d="M17.4999 2.83334C13.4727 2.83334 10.2083 6.00455 10.2083 9.91668C10.2083 13.8288 13.4727 17 17.4999 17C21.5271 17 24.7916 13.8288 24.7916 9.91668C24.7916 6.00455 21.5271 2.83334 17.4999 2.83334ZM12.0312 9.91668C12.0312 8.50771 12.6073 7.15646 13.6329 6.16017C14.6585 5.16389 16.0495 4.60418 17.4999 4.60418C18.9503 4.60418 20.3413 5.16389 21.3669 6.16017C22.3925 7.15646 22.9687 8.50771 22.9687 9.91668C22.9687 11.3256 22.3925 12.6769 21.3669 13.6732C20.3413 14.6695 18.9503 15.2292 17.4999 15.2292C16.0495 15.2292 14.6585 14.6695 13.6329 13.6732C12.6073 12.6769 12.0312 11.3256 12.0312 9.91668ZM8.93221 19.8333C8.11044 19.8333 7.32232 20.1504 6.74117 20.7148C6.16003 21.2792 5.83345 22.0448 5.83325 22.8431V23.375C5.83325 26.0348 7.24929 28.0266 9.42075 29.3108C11.5572 30.5738 14.4272 31.1667 17.4999 31.1667C20.5726 31.1667 23.4426 30.5738 25.5791 29.3108C27.7505 28.0266 29.1666 26.0348 29.1666 23.375V22.8431C29.1666 22.4478 29.0864 22.0563 28.9307 21.6911C28.7749 21.3259 28.5467 20.9941 28.2589 20.7146C27.9711 20.4351 27.6295 20.2135 27.2535 20.0622C26.8775 19.911 26.4746 19.8333 26.0676 19.8333H8.93221ZM7.65617 22.8431C7.65636 22.5144 7.79089 22.1993 8.03017 21.967C8.26945 21.7347 8.59391 21.6042 8.93221 21.6042H26.0676C26.7727 21.6042 27.3437 22.1588 27.3437 22.8431V23.375C27.3437 25.3187 26.352 26.7807 24.6312 27.7986C22.8739 28.8377 20.367 29.3958 17.4999 29.3958C14.6328 29.3958 12.126 28.8377 10.3687 27.7986C8.64784 26.7807 7.65617 25.3194 7.65617 23.375V22.8431Z" fill="black"/>
</svg>
