<svg width="27" height="27" viewBox="0 0 27 27" fill="none" xmlns="http://www.w3.org/2000/svg">
<path d="M25.3125 9.91406C25.3125 17.2969 14.3659 23.2727 13.8997 23.5195C13.7769 23.5856 13.6395 23.6202 13.5 23.6202C13.3605 23.6202 13.2231 23.5856 13.1003 23.5195C12.6341 23.2727 1.6875 17.2969 1.6875 9.91406C1.68945 8.1804 2.37902 6.51829 3.60491 5.29241C4.83079 4.06652 6.4929 3.37695 8.22656 3.375C10.4045 3.375 12.3114 4.31156 13.5 5.89465C14.6886 4.31156 16.5955 3.375 18.7734 3.375C20.5071 3.37695 22.1692 4.06652 23.3951 5.29241C24.621 6.51829 25.3105 8.1804 25.3125 9.91406Z" fill="#95EED8"/>
</svg>
