<svg width="25" height="25" viewBox="0 0 25 25" fill="none" xmlns="http://www.w3.org/2000/svg">
<g clip-path="url(#clip0_126_522)">
<path d="M12.5001 6.14584C13.7084 6.14584 14.6876 7.12501 14.6876 8.33334C14.6876 9.54168 13.7084 10.5208 12.5001 10.5208C11.2918 10.5208 10.3126 9.54168 10.3126 8.33334C10.3126 7.12501 11.2918 6.14584 12.5001 6.14584ZM12.5001 15.5208C15.5939 15.5208 18.8543 17.0417 18.8543 17.7083V18.8542H6.14594V17.7083C6.14594 17.0417 9.40635 15.5208 12.5001 15.5208ZM12.5001 4.16668C10.198 4.16668 8.33344 6.03126 8.33344 8.33334C8.33344 10.6354 10.198 12.5 12.5001 12.5C14.8022 12.5 16.6668 10.6354 16.6668 8.33334C16.6668 6.03126 14.8022 4.16668 12.5001 4.16668ZM12.5001 13.5417C9.71885 13.5417 4.16677 14.9375 4.16677 17.7083V20.8333H20.8334V17.7083C20.8334 14.9375 15.2814 13.5417 12.5001 13.5417Z" fill="black"/>
</g>
<defs>
<clipPath id="clip0_126_522">
<rect width="24.8944" height="24.8944" fill="white" transform="scale(1.00424)"/>
</clipPath>
</defs>
</svg>
