<svg width="22" height="24" viewBox="0 0 22 24" fill="none" xmlns="http://www.w3.org/2000/svg">
<g clip-path="url(#clip0_86_63)">
<path d="M14.0148 14.3712C13.8803 14.3242 13.0299 13.9147 13.5613 12.1893H13.5537C14.9388 10.6654 15.9973 8.21325 15.9973 5.79908C15.9973 2.08698 13.6865 0.141 11.0008 0.141C8.31342 0.141 6.01527 2.08608 6.01527 5.79908C6.01527 8.22319 7.06788 10.6853 8.4615 12.2055C9.00473 13.7276 8.03334 14.2925 7.83027 14.3721C5.01765 15.4585 1.71765 17.4388 1.71765 19.3938V20.1268C1.71765 22.7905 6.55257 23.3961 11.027 23.3961C15.5083 23.3961 20.2823 22.7905 20.2823 20.1268V19.3938C20.2823 17.3801 16.9662 15.4151 14.0148 14.3712Z" fill="black"/>
</g>
<defs>
<clipPath id="clip0_86_63">
<rect width="22" height="23.5" fill="white"/>
</clipPath>
</defs>
</svg>
