<svg width="28" height="28" viewBox="0 0 28 28" fill="none" xmlns="http://www.w3.org/2000/svg">
<path d="M14 13.4166C13.2265 13.4166 12.4846 13.1094 11.9376 12.5624C11.3907 12.0154 11.0834 11.2735 11.0834 10.5C11.0834 9.72643 11.3907 8.98457 11.9376 8.43759C12.4846 7.8906 13.2265 7.58331 14 7.58331C14.7736 7.58331 15.5155 7.8906 16.0624 8.43759C16.6094 8.98457 16.9167 9.72643 16.9167 10.5C16.9167 10.883 16.8413 11.2623 16.6947 11.6161C16.5481 11.97 16.3333 12.2915 16.0624 12.5624C15.7916 12.8332 15.4701 13.0481 15.1162 13.1946C14.7623 13.3412 14.3831 13.4166 14 13.4166ZM14 2.33331C11.8341 2.33331 9.75688 3.19373 8.22534 4.72527C6.69379 6.25682 5.83337 8.33405 5.83337 10.5C5.83337 16.625 14 25.6666 14 25.6666C14 25.6666 22.1667 16.625 22.1667 10.5C22.1667 8.33405 21.3063 6.25682 19.7747 4.72527C18.2432 3.19373 16.166 2.33331 14 2.33331Z" fill="#94EFD8"/>
</svg>
