<svg width="45" height="45" viewBox="0 0 45 45" fill="none" xmlns="http://www.w3.org/2000/svg">
<path d="M17.8122 5.625C21.0445 5.625 24.1445 6.90904 26.4301 9.19464C28.7157 11.4802 29.9997 14.5802 29.9997 17.8125C29.9997 20.8313 28.8934 23.6063 27.0747 25.7438L27.5809 26.25H29.0622L38.4372 35.625L35.6247 38.4375L26.2497 29.0625V27.5813L25.7434 27.075C23.532 28.9627 20.7198 29.9998 17.8122 30C14.5799 30 11.4799 28.716 9.19433 26.4304C6.90873 24.1448 5.62469 21.0448 5.62469 17.8125C5.62469 14.5802 6.90873 11.4802 9.19433 9.19464C11.4799 6.90904 14.5799 5.625 17.8122 5.625ZM17.8122 9.375C13.1247 9.375 9.37469 13.125 9.37469 17.8125C9.37469 22.5 13.1247 26.25 17.8122 26.25C22.4997 26.25 26.2497 22.5 26.2497 17.8125C26.2497 13.125 22.4997 9.375 17.8122 9.375Z" fill="black"/>
</svg>
