<svg width="20" height="20" viewBox="0 0 20 20" fill="none" xmlns="http://www.w3.org/2000/svg">
<path fill-rule="evenodd" clip-rule="evenodd" d="M2.41663 9.99996C2.41663 5.8118 5.8118 2.41663 9.99996 2.41663C14.1881 2.41663 17.5833 5.8118 17.5833 9.99996C17.5833 14.1881 14.1881 17.5833 9.99996 17.5833C5.8118 17.5833 2.41663 14.1881 2.41663 9.99996ZM19.0833 9.99996C19.0833 15.0165 15.0165 19.0833 9.99996 19.0833C4.98338 19.0833 0.916626 15.0165 0.916626 9.99996C0.916626 4.98338 4.98338 0.916626 9.99996 0.916626C15.0165 0.916626 19.0833 4.98338 19.0833 9.99996Z" fill="#242424"/>
<path fill-rule="evenodd" clip-rule="evenodd" d="M10.75 5C10.75 4.58579 10.4142 4.25 10 4.25C9.58579 4.25 9.25 4.58579 9.25 5V10C9.25 10.2841 9.4105 10.5438 9.66459 10.6708L12.9979 12.3375C13.3684 12.5227 13.8189 12.3726 14.0041 12.0021C14.1894 11.6316 14.0392 11.1811 13.6687 10.9959L10.75 9.53648V5ZM10 10H10.75V9.53648L10.3354 9.32918L10 10Z" fill="#242424"/>
</svg>
