<svg width="9" height="11" viewBox="0 0 9 11" fill="none" xmlns="http://www.w3.org/2000/svg">
<path d="M4.5 0C3.30696 0.00135161 2.16319 0.457078 1.31958 1.26721C0.475969 2.07734 0.00141225 3.17573 4.78754e-06 4.32143C-0.00142412 5.2577 0.317042 6.16856 0.906549 6.91429C0.906549 6.91429 1.02928 7.06946 1.04932 7.09186L4.5 11L7.95231 7.08989C7.97031 7.06907 8.09345 6.91429 8.09345 6.91429L8.09386 6.91311C8.68307 6.1677 9.00139 5.25727 9 4.32143C8.99859 3.17573 8.52403 2.07734 7.68042 1.26721C6.83681 0.457078 5.69304 0.00135161 4.5 0ZM4.5 5.89286C4.17636 5.89286 3.85998 5.80069 3.59089 5.62802C3.32179 5.45535 3.11205 5.20993 2.9882 4.92279C2.86435 4.63565 2.83194 4.31969 2.89508 4.01486C2.95822 3.71003 3.11407 3.43003 3.34292 3.21026C3.57177 2.99049 3.86334 2.84083 4.18076 2.78019C4.49818 2.71956 4.8272 2.75068 5.12621 2.86962C5.42521 2.98856 5.68078 3.18997 5.86059 3.44839C6.04039 3.70681 6.13636 4.01063 6.13636 4.32143C6.13582 4.73804 5.96324 5.13743 5.65648 5.43202C5.34972 5.72661 4.93382 5.89234 4.5 5.89286Z" fill="black"/>
</svg>
